<?xml version="1.0" encoding="utf-8"?>
<!-- Generator: Adobe Illustrator 25.0.1, SVG Export Plug-In . SVG Version: 6.00 Build 0)  -->
<svg version="1.1" id="Layer_1" xmlns="http://www.w3.org/2000/svg" xmlns:xlink="http://www.w3.org/1999/xlink" x="0px" y="0px"
	 viewBox="0 0 743.2 512" style="enable-background:new 0 0 743.2 512;" xml:space="preserve">
<style type="text/css">
	.st0{fill:#01979C;}
</style>
<g id="GBtEQk_1_">
	<g>
		<path class="st0" d="M642,486.3c-1.4-0.4-2.7-0.8-4.1-1.2c-12.3-3-20.1-10.8-23.6-22.7c-4.6-15.7-4.5-31.5,0.5-47.1
			c5-15.3,16.9-23.9,33.1-24c5.4,0,10.9,0.4,16.2,1.5c11.3,2.4,18.8,9.6,22.1,20.5c4.8,16.1,5.1,32.4,0.1,48.5
			c-4.2,13.6-13.6,21.6-27.7,23.9c-0.3,0.1-0.6,0.3-1,0.5C652.4,486.3,647.2,486.3,642,486.3z M665.6,438.4
			c-0.5-6.2-0.7-12.3-1.7-18.3c-1.1-7.1-5-10-12.1-10.1c-0.7,0-1.3,0-2,0c-7.6,0-11.4,2.7-12.8,10.3c-2.2,12.1-2.1,24.3-0.3,36.4
			c0.5,3.4,1.8,6.6,4.9,8.7c8.4,5.9,20.6,1.4,22.3-8.6C664.9,450.7,665,444.5,665.6,438.4z"/>
		<path class="st0" d="M364,486.3c-1.7-0.5-3.3-1-5-1.4c-13.4-3.4-21.4-12.7-22.3-26.5c-0.4-5.3-0.4-10.6-0.4-15.8
			c0-15.7,0-31.4,0-47.1c0-0.9,0-1.8,0-2.8c7.7,0,15.2,0,23.2,0c0,0.9,0,1.8,0,2.7c0,18.2,0,36.5,0,54.7c0,2,0.1,4.1,0.5,6.1
			c1.5,9,6.3,12.3,15.8,11.4c8-0.8,11.3-5.1,11.7-14.6c0.1-3.2,0.1-6.5,0.1-9.8c0-16,0-31.9,0-47.9c0-0.9,0-1.7,0-2.8
			c7.5,0,14.7,0,22.2,0c0,0.8,0,1.6,0,2.4c0,19.5,0.1,38.9,0,58.4c0,9.4-2.3,18.1-9.7,24.6c-5.2,4.6-11.6,6.7-18.4,7.8
			c-0.5,0.1-1,0.3-1.5,0.5C374.7,486.3,369.3,486.3,364,486.3z"/>
		<path class="st0" d="M371.5,127.4c5.9-7.7,11.5-15.4,17.5-22.6c19.9-24.1,43-44.4,70.8-58.9c22.8-11.8,47.1-18.6,72.8-19.8
			c43.8-2.1,83.1,10.2,117,38.2c30.8,25.3,50.1,57.8,56.1,97.3c7.3,48.8-6,91.9-38.8,128.6c-25.8,28.9-58.4,46.4-96.6,52.6
			c-50.8,8.2-96.6-4.5-137.7-34.8c-23.2-17.1-42.3-38.2-58.8-61.8c-0.6-0.9-1.3-1.8-2-2.9c-4.2,5.6-8.1,11.1-12.2,16.4
			c-20.6,26.3-44.7,48.6-74.3,64.4c-28.9,15.4-59.6,22.5-92.3,20.8c-40.9-2.1-76.7-16.8-106.8-44.7c-26.8-24.9-43.6-55.6-48.8-91.9
			c-6.7-47.2,5.9-89.2,37-125.2c26.6-30.8,60.6-49.1,100.7-55.2c47.4-7.1,90.7,4,130,31.1c25.6,17.6,46.3,40,64.2,65.3
			C370,125.3,370.7,126.3,371.5,127.4z M202.2,288.8c5.7-0.6,12.5-1,19.1-2.1c22.9-3.7,42.8-14,60.7-28.4
			c24.3-19.6,42.5-44.2,57.3-71.5c0.4-0.8,0.3-2.3-0.2-3c-6.7-10.8-13-21.8-20.4-32.1c-14-19.6-30.8-36.5-51.3-49.5
			c-24.9-15.7-51.9-22.5-81.2-18.7c-25.6,3.3-47.5,14.3-65.7,32.8c-30.9,31.5-37.5,79.9-15.1,117.9
			C126.8,270.4,159.9,287,202.2,288.8z M651,185.6c-0.1-0.8-0.1-1.6-0.2-2.4c-0.9-30.1-13.2-55.1-36.1-74.2
			c-31.2-26-67-32.4-105.8-21.8c-24.1,6.6-43.9,20.4-61.5,37.7c-17.5,17.3-31.6,37.1-43.3,58.7c-0.7,1.3-0.7,2.3,0,3.6
			c14.1,25.8,31.2,49.1,53.7,68.2c20.5,17.4,43.5,29.2,70.6,32.2c28.1,3.1,54.2-2.7,77.4-18.8C634.6,248.7,649.9,220.9,651,185.6z"
			/>
		<path class="st0" d="M541.4,426.3c0,19.9,0,39.1,0,58.5c-7.1,0-14.2,0-21.5,0c0-30.6,0-61.3,0-92.2c0.6,0,1.3-0.1,2-0.1
			c6.9,0,13.8,0.1,20.8,0c1.6,0,2.4,0.5,3.2,1.9c9.1,17,18.3,34,27.5,51.1c0.3,0.5,0.5,1,1.2,2.1c0-18.7,0-36.7,0-54.8
			c7.2,0,14.2,0,21.3,0c0,30.6,0,61.3,0,92.3c-7.4,0-14.8,0-22.2-0.1c-0.7,0-1.5-1-1.9-1.8c-8.1-15-16.1-30.1-24.1-45.1
			C545.7,434.2,543.7,430.6,541.4,426.3z"/>
		<path class="st0" d="M210.1,451.5c5.8,10.9,11.7,22,17.8,33.4c-5.8,0-11.1,0-16.4,0c-2.9,0-5.9-0.1-8.8,0
			c-1.5,0.1-2.3-0.5-2.9-1.9c-4-8.5-8.1-17-12-25.6c-0.7-1.5-1.5-2-3.1-1.9c-3,0.1-6,0-9.1,0c0,9.8,0,19.4,0,29.1
			c-7.7,0-15.2,0-22.9,0c0-30.6,0-61.3,0-92.1c0.3-0.1,0.5-0.2,0.7-0.2c13.4,0,26.9-0.2,40.3,0.2c4.6,0.1,9.4,1.2,13.8,2.7
			c9.6,3.3,15.2,10.3,16.9,20.2c1.9,10.9,0.8,21.3-7,29.9C215.2,447.6,212.7,449.3,210.1,451.5z M175.5,436.9
			c5.3,0,10.5,0.3,15.7-0.1c4.5-0.4,7.7-3.2,8.6-7.7c0.6-2.9,0.7-6,0.5-8.9c-0.3-4.5-2.6-7.5-7.1-8.1c-5.8-0.8-11.7-0.7-17.7-1
			C175.5,420.1,175.5,428.5,175.5,436.9z"/>
		<path class="st0" d="M243.5,484.9c0-31,0-61.6,0-92.2c16,0,32-1.8,47.7,1.6c16.3,3.6,25.3,13.9,27.7,30.6
			c1.4,10,1.4,19.9-0.8,29.8c-3.8,16.3-14.3,26.4-30.8,29.1c-4.3,0.7-8.7,1-13.1,1.1C264,485,253.9,484.9,243.5,484.9z M266.6,465.5
			c4.7,0,9.4,0.5,13.9-0.1c8.2-1.1,12.3-5,13.7-13.2c1.6-9.4,1.6-18.9-0.3-28.3c-1-4.9-3.7-8.6-8.4-10.6c-6.1-2.5-12.5-1.9-19-1.8
			C266.6,429.7,266.6,447.7,266.6,465.5z"/>
		<path class="st0" d="M77.2,484.8c-8,0-15.7,0-23.6,0c9.7-30.9,19.3-61.6,29-92.4c8.3,0,16.4,0,24.6,0.1c0.6,0,1.5,1,1.8,1.7
			c5,15.4,9.8,30.8,14.7,46.2c4.5,14,8.9,28,13.4,42c0.2,0.8,0.4,1.5,0.7,2.4c-8.1,0-16.1,0-24.3,0c-1.5-5.4-3.1-10.8-4.4-16.3
			c-0.5-2-1.3-2.5-3.3-2.5c-7.1,0.1-14.2,0.2-21.2,0c-2.2,0-2.9,0.7-3.4,2.7C79.9,474,78.5,479.4,77.2,484.8z M94.6,414.7
			c-2.9,11.5-5.5,22.4-8.3,33.3c5.8,0,11.5,0,17.2,0C100.6,437,97.6,426.2,94.6,414.7z"/>
		<path class="st0" d="M430,411.5c0-6.6,0-12.7,0-19c23.6,0,47.1,0,70.8,0c0,6.2,0,12.4,0,18.9c-7.9,0-15.7,0-23.8,0
			c0,18.2,0,36.3,0,54.5c7.9,0,15.8,0,23.8,0c0,6.4,0,12.5,0,18.8c-23.6,0-47.2,0-70.8,0c0-6.2,0-12.4,0-18.7c7.9,0,15.7,0,23.6,0
			c0-18.2,0-36.2,0-54.5C445.9,411.5,438,411.5,430,411.5z"/>
		<path class="st0" d="M155.6,169.9c33.1,0,66.1,0,99.3,0c0,10.6,0,21.2,0,31.9c-33.1,0-66.1,0-99.3,0
			C155.6,191.2,155.6,180.7,155.6,169.9z"/>
		<path class="st0" d="M520.8,136.2c11,0,21.5,0,32.3,0c0,11.2,0,22.2,0,33.5c11.3,0,22.4,0,33.6,0c0,10.8,0,21.4,0,32.1
			c-11.1,0-22.1,0-33.4,0c0,11.3,0,22.4,0,33.6c-10.8,0-21.4,0-32.2,0c0-11.1,0-22.2,0-33.5c-11.3,0-22.3,0-33.5,0
			c0-10.8,0-21.3,0-32.1c11,0,22.1,0,33.4,0C520.8,158.5,520.8,147.4,520.8,136.2z"/>
	</g>
</g>
</svg>
