<?xml version="1.0" encoding="utf-8"?>
<!-- Generator: Adobe Illustrator 25.0.1, SVG Export Plug-In . SVG Version: 6.00 Build 0)  -->
<svg version="1.1" id="Layer_1" xmlns="http://www.w3.org/2000/svg" xmlns:xlink="http://www.w3.org/1999/xlink" x="0px" y="0px"
	 viewBox="0 0 414.8 91" style="enable-background:new 0 0 414.8 91;" xml:space="preserve">
<style type="text/css">
	.st0{fill:#D33D45;}
	.st1{fill:#454547;}
</style>
<g>
	<path class="st0" d="M57.5,53.8c-13.1,0.6-25.9-1-38.3-5c-6.5-2.1-9.8-4.3-13.7-9c0-5.9-0.1-12.4,0-18.8c0-2.7,1.8-4.6,3.9-6.1
		c4.3-3,9.1-4.8,14.1-6.1C40.1,4.5,56.9,4,73.9,5.7c7.3,0.7,14.5,2,21.4,4.3c5.2,1.7,10.3,3.8,13.9,8.7c0,7,0,14.2,0,21.4
		c-2.7,4-6.6,6.3-11.4,7.8c-13.1-3.3-26.5-6.6-40.5-10.1C57.4,43.4,57.4,48.6,57.5,53.8L57.5,53.8z"/>
	<path class="st0" d="M57.4,53.9c13.5,3.4,27,6.8,41.2,10.4c3.3-2.1,7-4.5,10.8-6.8c0,5,0,10.1,0,15c-2.5,4.6-6.9,6.3-11.1,8.3
		c-13.4-3.4-26.7-6.7-40.7-10.2c0,5.5,0,10.7,0,16.6c-7.1-0.5-13.5-0.7-19.9-1.5c-8.7-1.1-17.4-2.7-25.3-7c-2.6-1.4-4.7-3.5-6.9-5.1
		c0-6.1,0-11.5,0-17.6c3.9,5.7,9.5,7.9,15.2,9.6c11.7,3.5,23.7,4.9,36.5,4.5C57.4,64.6,57.4,59.2,57.4,53.9L57.4,53.9z"/>
	<path class="st0" d="M366.3,67.9c-2.9,0-5.5,0-8.8,0c-0.4-5.4,0-11-0.3-16.8c-5.9,0-11.5,0-17.5,0c0,5.6,0,11,0,16.7
		c-3.2,0-6,0-9.1,0c0-14.1,0-28.2,0-42.6c2.7,0,5.6,0,8.8,0c0,5.3,0,10.6,0,16.5c6,0.6,11.7,0.1,17.9,0.3c0-5.8,0-11.2,0-16.9
		c3.2,0,6,0,9,0C366.3,39.2,366.3,53.2,366.3,67.9z"/>
	<path class="st0" d="M298.4,68.3c-3.3,0-6,0-8.7,0c-1.2-3.6-1.5-32.2-0.6-43.2c1-0.1,2.1-0.4,3.2-0.4c5.5,0,11-0.1,16.5,0.1
		c8.5,0.2,14.4,6.2,14.6,14.5c0.2,8.5-5.6,15-14.1,15.6c-3.4,0.3-6.9,0.4-10.9,0.5C298.4,60,298.4,64,298.4,68.3z M311.1,45.4
		c4.5-6.8,2.1-11.8-5.4-12.2c-2.3-0.1-4.5,0-6.8,0c0,4.8,0,9.2,0,13.5c3.1,0,5.7,0.1,8.3-0.1C308.5,46.5,309.8,45.8,311.1,45.4z"/>
	<path class="st0" d="M377.6,24.9c7.2,0,14.1-0.3,21.1,0.1c7.4,0.4,12.7,6.9,12.7,14.7c0,8-5.2,14.3-12.9,15.1
		c-3.6,0.4-7.2,0.3-10.9,0.5c-1.9,4.2-0.6,8.4-0.8,12.4c-0.6,0.3-1,0.8-1.5,0.8c-2.5,0.1-4.9,0-7.7,0
		C377.6,53.9,377.6,39.7,377.6,24.9z M401.4,36.6c-4.4-4.8-9.6-3.3-14.4-3.5c0,4.9,0,9.1,0,13.6c5.3-0.3,10.8,1.6,14.4-4
		C401.4,40.8,401.4,38.8,401.4,36.6z"/>
	<path class="st1" d="M171.6,30.8c-2.1,2.4-3.9,4.6-5.9,6.9c-4-3.2-8.2-5.8-13.3-4.6c-2.6,0.6-5.3,2.3-7.1,4.2
		c-4.4,4.7-4.2,13.4,0,18.4c4.8,5.7,10.9,5.6,20.9-0.4c1.7,1.8,3.5,3.7,5.3,5.6c-4.7,8.8-21.9,11.1-31.2,3.5
		c-9.8-8.1-11.3-23.5-2.9-33C146.2,21.5,162.2,21.1,171.6,30.8z"/>
	<path class="st1" d="M215.6,23c3,0,5.7,0,8.8,0c0,7.6,0,15,0,23.7c4.1-4.4,7.5-8,11-11.7c3.4,0,7,0,11.1,0c-4.2,4.5-8,8.6-12,13
		c4.2,6.6,8.2,13,12.6,20c-3.9,0-7.1,0-10.7,0c-2.7-4.1-5.5-8.5-8.5-13.2c-1.3,1.2-2.4,2.2-3.3,3c0,3.7,0,6.8,0,10.2
		c-3,0-5.7,0-8.9,0C215.6,53.2,215.6,38.3,215.6,23z"/>
	<path class="st1" d="M197.7,48.7c-0.9-4.7-1.8-5.8-5.6-5.8c-3.3,0-6.6,0.6-10.3,1c-0.7-1.8-1.5-4-2.5-6.5c7.2-3.4,14.4-4.3,21.6-1
		c4.4,2,6,6.2,6.2,10.7c0.3,7,0.1,13.9,0.1,21.2c-2.9,0-5.7,0-8.7,0c-0.3-0.5-0.8-1.2-1.3-2c-0.4,0.1-0.9,0.2-1.2,0.4
		c-4.2,2.9-8.7,3.1-13.3,1.3c-4-1.5-6.2-5-6.2-9.3c0-4.4,1.9-7.7,6-9.4C187.4,47.1,192.3,47.7,197.7,48.7z M185.6,58.4
		c2.2,3.4,4.3,4.3,8,3.4c3.1-0.8,4.2-2.5,4.3-6.7C191.8,52.3,187.9,53.2,185.6,58.4z"/>
	<path class="st1" d="M258.4,54.9c2.2,7.2,7.5,8.2,15.9,3.1c1.6,1.5,3.3,3,5,4.5c-5.1,6.5-13.7,8.4-21.2,5
		c-7.1-3.3-11-11.6-9.2-19.6c2.2-10.2,11.1-15.7,20.9-13.1c5.8,1.5,8.9,5.6,10.5,11c0.8,2.7,0.9,5.5,1.4,9c-4.2,0.1-8,0.1-11.7,0.2
		C266.1,54.9,262.3,54.9,258.4,54.9z M258.5,48.7c4.3,0,8.6,0,12.9,0c-0.8-4.8-2.7-6.8-6.4-6.8C261.3,41.9,259.3,44,258.5,48.7z"/>
</g>
</svg>
