<?xml version="1.0" encoding="utf-8"?>
<!-- Generator: Adobe Illustrator 25.4.1, SVG Export Plug-In . SVG Version: 6.00 Build 0)  -->
<svg version="1.1" id="Layer_1" xmlns="http://www.w3.org/2000/svg" xmlns:xlink="http://www.w3.org/1999/xlink" x="0px" y="0px"
	 viewBox="0 0 529 512" style="enable-background:new 0 0 529 512;" xml:space="preserve">
<style type="text/css">
	.st0{fill:#320000;}
	.st1{fill:#FC9902;}
</style>
<g id="vtjx7L_00000022532743045287761910000012987701516259280013_">
	<g>
		<path class="st0" d="M264,504.8c-54.7,0-109.4,0-164.1,0c-42.9,0-79.3-29.3-88.5-71.1c-1.4-6.5-2-13.1-2-19.8
			c0-106-0.2-212,0.1-318c0.1-45.8,36-84,81.5-88c3.9-0.3,7.8-0.6,11.7-0.6c108.3,0,216.5,0,324.8,0c46.3,0,83.5,31.3,91.1,76.8
			c0.7,3.9,0.9,8,0.9,12c0,106.8,0.1,213.5,0,320.3c0,45.7-37.9,85.6-83.5,88.2c-3,0.2-6,0.3-9,0.3
			C372.7,504.8,318.4,504.8,264,504.8z M217.1,134.7C217.1,134.7,217.1,134.7,217.1,134.7c-8.7,0-17.3,0.1-26,0c-3,0-4.4,0.7-4.3,4
			c0.2,7-1.4,13.7-3.7,20.3c-12.6,36.4-25.3,72.8-38,109.2c-9.8,28.3-19.7,56.7-29.5,85c-1.6,4.6-0.8,5.6,4,5.6
			c12.1,0,24.1-0.1,36.2,0.1c3.5,0.1,5.2-1.2,6.2-4.5c4.7-15.1,9.7-30.1,14.5-45.2c0.8-2.4,1.8-3.3,4.5-3.3c24,0.1,48,0.1,72,0
			c2.7,0,3.9,0.8,4.8,3.4c5.1,15.2,10.5,30.4,15.6,45.6c1,3,2.6,4.1,5.8,4c12.4-0.2,24.9-0.1,37.3-0.1c8.9,0,8.9,0,5.9-8.3
			c-25.1-70.8-50.2-141.6-75.2-212.4c-0.9-2.6-2.2-3.5-4.9-3.5C233.9,134.8,225.5,134.7,217.1,134.7z M394.3,274.2
			c0-26.8,0-53.5,0-80.3c0-4.7-0.2-4.9-4.9-4.9c-12.7,0-25.4,0.1-38.1-0.1c-3.9-0.1-4.9,1.3-4.9,5c0.1,53.3,0.1,106.6,0.1,159.8
			c0,4.7,0.6,5.3,5.1,5.3c12.4,0,24.9,0,37.3,0c5.1,0,5.3-0.3,5.3-5.3C394.3,327.2,394.3,300.7,394.3,274.2z M370.5,171.1
			c15.4,0.1,26.6-10.8,26.7-26c0.1-16.6-10.3-27.5-26.2-27.5c-15.4,0-26.8,11.3-26.9,26.5C344,160.1,354.7,171,370.5,171.1z"/>
		<path class="st1" d="M217.1,134.7c8.4,0,16.8,0.1,25.3-0.1c2.7,0,4,0.9,4.9,3.5c25,70.8,50.1,141.6,75.2,212.4
			c3,8.3,3,8.3-5.9,8.3c-12.4,0-24.9-0.1-37.3,0.1c-3.1,0-4.7-1-5.8-4c-5.1-15.2-10.5-30.4-15.6-45.6c-0.9-2.6-2.1-3.4-4.8-3.4
			c-24,0.1-48,0.1-72,0c-2.7,0-3.7,0.9-4.5,3.3c-4.8,15.1-9.7,30.1-14.5,45.2c-1,3.3-2.7,4.6-6.2,4.5c-12.1-0.2-24.1-0.1-36.2-0.1
			c-4.8,0-5.6-1-4-5.6c9.8-28.4,19.7-56.7,29.5-85c12.7-36.4,25.3-72.8,38-109.2c2.3-6.6,3.9-13.3,3.7-20.3c-0.1-3.3,1.3-4,4.3-4
			C199.7,134.8,208.4,134.7,217.1,134.7C217.1,134.7,217.1,134.7,217.1,134.7z M216.7,177.8c-2.9,1.9-2.1,5-2.9,7.6
			c-7.1,24.6-14.7,49.1-22.5,73.5c-1,3.2-0.4,3.8,2.8,3.7c9.2-0.2,18.4-0.1,27.5-0.1c6.4,0,12.8,0,19.2,0c2.2,0,3.1-0.5,2.1-2.8
			c-0.4-1-0.7-2.2-1-3.2c-7.3-22.3-14.4-44.7-21-67.2C219.7,185.3,218.8,181.4,216.7,177.8z"/>
		<path class="st1" d="M394.3,274.2c0,26.5,0,53,0,79.5c0,5-0.2,5.3-5.3,5.3c-12.4,0-24.9,0-37.3,0c-4.6,0-5.1-0.6-5.1-5.3
			c0-53.3,0-106.6-0.1-159.8c0-3.7,1-5.1,4.9-5c12.7,0.2,25.4,0.1,38.1,0.1c4.7,0,4.9,0.2,4.9,4.9
			C394.3,220.6,394.3,247.4,394.3,274.2z"/>
		<path class="st1" d="M370.5,171.1c-15.8-0.1-26.6-11-26.5-27.1c0.1-15.2,11.5-26.5,26.9-26.5c16,0,26.4,10.9,26.2,27.5
			C397.1,160.3,386,171.2,370.5,171.1z"/>
		<path class="st0" d="M216.7,177.8c2.1,3.6,3.1,7.6,4.2,11.4c6.7,22.5,13.7,44.9,21,67.2c0.4,1.1,0.6,2.2,1,3.2
			c1,2.3,0.1,2.8-2.1,2.8c-6.4-0.1-12.8,0-19.2,0c-9.2,0-18.4-0.1-27.5,0.1c-3.2,0.1-3.8-0.5-2.8-3.7c7.8-24.4,15.4-48.9,22.5-73.5
			C214.5,182.8,213.8,179.7,216.7,177.8z"/>
	</g>
</g>
</svg>
