<?xml version="1.0" encoding="utf-8"?>
<!-- Generator: Adobe Illustrator 25.0.1, SVG Export Plug-In . SVG Version: 6.00 Build 0)  -->
<svg version="1.1" id="Layer_1" xmlns="http://www.w3.org/2000/svg" xmlns:xlink="http://www.w3.org/1999/xlink" x="0px" y="0px"
	 viewBox="0 0 296.9 87.9" style="enable-background:new 0 0 296.9 87.9;" xml:space="preserve">
<style type="text/css">
	.st0{fill:#066AA8;}
	.st1{fill:#333333;}
</style>
<g>
	<g>
		<path class="st0" d="M116.5,70.1c0,0.6-0.1,1.2-0.1,1.9l2.5-4.5l-0.3-1.5l2.5-0.4l0.9,6.3l1.1-3.9c0.1-0.4,0.1-0.7,0.1-1
			c0-0.3,0-0.6-0.1-1l2.6-0.5c0.1,0.5,0.2,1,0.1,1.5c0,0.6-0.2,1.3-0.6,2.4l-2.1,5.7H120l-0.7-4.2l-2.4,4.2h-3c0.1-3.9,0-6.4-0.3-9
			l2.6-0.4C116.4,67,116.5,68.4,116.5,70.1z"/>
		<path class="st0" d="M132.7,67.9c-1.2,0.6-1.7,0.9-2.8,1.6l-1.2,5.5h-2.7l1.9-9.1l2.4-0.4l-0.1,1.3c0.9-0.5,1.7-0.9,2.5-1.3
			L132.7,67.9z"/>
		<path class="st0" d="M134.3,65.9l2.8-0.4l-2,9.5h-2.7L134.3,65.9z M135.2,61.7l2.8-0.4l-0.6,2.9l-2.8,0.4L135.2,61.7z"/>
		<path class="st0" d="M142,67.8l-1,4.6c0,0.1,0,0.2,0,0.2c0,0.1,0.1,0.2,0.3,0.2c0.5,0,1-0.2,1.5-0.4l0.5,1.9
			c-0.8,0.4-1.9,0.8-3,0.8c-1.4,0-2.1-0.7-2-1.8c0-0.1,0-0.3,0.1-0.4l1.1-5.2H138l0.5-2.2h1.4l0.5-2.2L143,63l-0.5,2.6h2.2l-0.6,2.2
			H142z"/>
		<path class="st0" d="M145.2,69c0.5-2.1,1.5-3.5,4.4-3.5c1.8,0,3.1,0.8,3,2.3c-0.1,1.8-1,2.7-3.3,3.3c-1.1,0.3-1.2,0.3-2,0.6
			l-0.1,0.6c-0.1,0.3,0,0.7,0.5,0.7c1,0,2.4-0.5,3.7-1l0.4,1.9c-1.2,0.7-3,1.3-4.6,1.3c-1.9,0-2.7-0.8-2.7-2.4
			c0-0.3,0.1-0.7,0.2-1.1L145.2,69z M150.2,68.1c0-0.3-0.3-0.5-0.8-0.5c-1,0-1.3,0.6-1.4,1.3l-0.1,0.7c0.5-0.1,0.7-0.2,1.2-0.3
			C149.8,69,150.1,68.6,150.2,68.1z"/>
		<path class="st0" d="M159.6,61.8l2.8-0.4L159.6,75h-2.7L159.6,61.8z"/>
		<path class="st0" d="M162.8,69c0.5-2.1,1.5-3.5,4.4-3.5c1.8,0,3.1,0.8,3,2.3c-0.1,1.8-1,2.7-3.3,3.3c-1.1,0.3-1.2,0.3-2,0.6
			l-0.1,0.6c-0.1,0.3,0,0.7,0.5,0.7c1,0,2.4-0.5,3.7-1l0.4,1.9c-1.2,0.7-3,1.3-4.6,1.3c-1.9,0-2.7-0.8-2.7-2.4
			c0-0.3,0.1-0.7,0.2-1.1L162.8,69z M167.7,68.1c0-0.3-0.3-0.5-0.8-0.5c-1,0-1.3,0.6-1.4,1.3l-0.1,0.7c0.5-0.1,0.7-0.2,1.2-0.3
			C167.3,69,167.6,68.6,167.7,68.1z"/>
		<path class="st0" d="M170.4,74.5l0.6-2c0.7,0.2,1.5,0.5,2.5,0.5c0.9,0,1-0.3,1.1-0.7c0.1-0.4-0.2-0.6-1.2-1.2
			c-1.9-1-2-1.7-1.7-3.1c0.4-2,1-2.5,3.6-2.5c0.9,0,2,0.2,2.8,0.4l-0.5,2c-0.7-0.2-1.7-0.3-2.3-0.3c-0.8,0-0.9,0.1-1,0.6
			c-0.1,0.4,0,0.5,0.9,1c2.1,1.1,2.4,1.5,2.1,3c-0.5,2.1-1.1,2.9-3.9,2.9C172.4,75.1,171.2,74.9,170.4,74.5z"/>
		<path class="st0" d="M178.1,74.5l0.6-2c0.7,0.2,1.5,0.5,2.5,0.5c0.9,0,1-0.3,1.1-0.7c0.1-0.4-0.2-0.6-1.2-1.2
			c-1.9-1-2-1.7-1.7-3.1c0.4-2,1-2.5,3.6-2.5c0.9,0,2,0.2,2.8,0.4l-0.5,2c-0.7-0.2-1.7-0.3-2.3-0.3c-0.8,0-0.9,0.1-1,0.6
			c-0.1,0.4,0,0.5,0.9,1c2.1,1.1,2.4,1.5,2.1,3c-0.5,2.1-1.1,2.9-3.9,2.9C180.1,75.1,178.9,74.9,178.1,74.5z"/>
		<path class="st0" d="M185.5,77l1.5-2.1h-1l0.7-3.2h2.7l-0.7,3.4l-2.2,2.6L185.5,77z"/>
		<path class="st0" d="M200.3,75l0-0.8c-0.7,0.6-1.7,1-3,1c-2,0-2.5-1.2-2-3.3l0.5-2.5c0.5-2.2,1.1-3.9,5-3.9c0.3,0,0.9,0,1.1,0.1
			l0.8-3.7l2.8-0.4L202.5,75H200.3z M197.8,72.2c-0.1,0.5,0,0.7,0.5,0.7c1,0,1.7-0.5,2.2-1l0.9-4.1c-0.3-0.1-0.7-0.1-1-0.1
			c-1.4,0-1.7,0.7-1.9,1.6L197.8,72.2z"/>
		<path class="st0" d="M205,72c0-0.2,0-0.4,0.1-0.7l0.5-2.2c0.5-2.4,1.7-3.8,5-3.8c2.5,0,3.6,1.4,3.5,3.1c0,0.2,0,0.4-0.1,0.7
			l-0.5,2.2c-0.5,2.2-1.6,3.8-5,3.8C206.2,75.1,205,73.7,205,72z M211.4,68.8c0-0.7-0.4-1.1-1.3-1.1c-1,0-1.6,0.5-1.8,1.4l-0.5,2.3
			c0,0.1,0,0.3-0.1,0.4c0,0.7,0.4,1.1,1.3,1.1c1,0,1.6-0.5,1.8-1.4l0.5-2.3C211.3,69,211.4,68.9,211.4,68.8z"/>
		<path class="st0" d="M230.5,68.6c0-0.1,0-0.2,0-0.3c0-0.2-0.1-0.3-0.4-0.3c-0.5,0-1.7,0.5-2.5,0.9l-1.3,6h-2.7l1.3-6.3
			c0-0.1,0-0.2,0-0.3c0-0.2-0.1-0.3-0.4-0.3c-0.5,0-1.7,0.5-2.4,0.9l-1.3,6h-2.7l1.9-9.1l2.4-0.4l-0.1,1c1.5-0.7,2.6-1.1,3.7-1.1
			c0.9,0,1.4,0.4,1.6,1.1c1.4-0.8,2.7-1.1,3.8-1.1c1.2,0,1.7,0.7,1.6,1.9c0,0.3,0,0.7-0.1,1.1l-1.4,6.5h-2.7L230.5,68.6z"/>
		<path class="st0" d="M234.3,72c0-0.2,0-0.4,0.1-0.7l0.5-2.2c0.5-2.4,1.7-3.8,5-3.8c2.5,0,3.6,1.4,3.5,3.1c0,0.2,0,0.4-0.1,0.7
			l-0.5,2.2c-0.5,2.2-1.6,3.8-5,3.8C235.4,75.1,234.2,73.7,234.3,72z M240.6,68.8c0-0.7-0.4-1.1-1.3-1.1c-1,0-1.6,0.5-1.8,1.4
			l-0.5,2.3c0,0.1,0,0.3-0.1,0.4c0,0.7,0.4,1.1,1.3,1.1c1,0,1.6-0.5,1.8-1.4l0.5-2.3C240.6,69,240.6,68.9,240.6,68.8z"/>
		<path class="st0" d="M250.5,67.9c-1.2,0.6-1.7,0.9-2.7,1.6l-1.2,5.5h-2.7l1.9-9.1l2.4-0.4l-0.1,1.3c0.9-0.5,1.7-0.9,2.5-1.3
			L250.5,67.9z"/>
		<path class="st0" d="M251.1,69c0.5-2.1,1.5-3.5,4.4-3.5c1.8,0,3.1,0.8,3,2.3c-0.1,1.8-1,2.7-3.3,3.3c-1.1,0.3-1.2,0.3-2,0.6
			l-0.1,0.6c-0.1,0.3,0,0.7,0.5,0.7c1,0,2.4-0.5,3.7-1l0.4,1.9c-1.2,0.7-3,1.3-4.6,1.3c-1.9,0-2.7-0.8-2.7-2.4
			c0-0.3,0.1-0.7,0.2-1.1L251.1,69z M256,68.1c0-0.3-0.3-0.5-0.8-0.5c-1,0-1.3,0.6-1.4,1.3l-0.1,0.7c0.5-0.1,0.7-0.2,1.2-0.3
			C255.6,69,256,68.6,256,68.1z"/>
		<path class="st0" d="M259.6,71.8h2.7l-0.7,3.2H259L259.6,71.8z"/>
	</g>
</g>
<path class="st0" d="M12.5,20.5c-4.6,6.5-4,15.1-0.5,22c0.1,0.2,0.2,0.3,0.3,0.5c0,0.1,0.1,0.2,0.2,0.3c0,0.1,0.1,0.1,0.1,0.2
	c0.1,0.1,0.1,0.2,0.2,0.3c0.1,0.2,0.2,0.4,0.3,0.6c0.1,0.1,0.1,0.2,0.2,0.3c0.1,0.2,0.3,0.4,0.4,0.6c0.1,0.1,0.1,0.2,0.2,0.3
	c0.2,0.3,0.4,0.5,0.6,0.8c0,0,0,0,0,0c0,0,0.1,0.1,0.1,0.1c0.2,0.2,0.3,0.5,0.5,0.7c0.1,0.1,0.1,0.2,0.2,0.2
	c0.2,0.2,0.3,0.4,0.5,0.6c0.1,0.1,0.1,0.1,0.2,0.2c0.2,0.3,0.4,0.5,0.7,0.7c0,0,0,0,0,0c0,0,0,0,0,0c0.2,0.2,0.4,0.5,0.7,0.7
	c0.1,0.1,0.1,0.1,0.2,0.2c0.2,0.2,0.3,0.3,0.5,0.5c0.1,0.1,0.1,0.1,0.2,0.2c0.2,0.2,0.5,0.4,0.7,0.7c0,0,0,0,0,0
	c0,0,0.1,0.1,0.1,0.1c0.2,0.2,0.4,0.4,0.7,0.6c0.1,0.1,0.2,0.1,0.3,0.2c0.2,0.1,0.4,0.3,0.6,0.4c0.1,0.1,0.2,0.1,0.3,0.2
	c0.2,0.2,0.4,0.3,0.6,0.4c0.1,0.1,0.1,0.1,0.2,0.2c0,0,0,0,0.1,0c0.2,0.1,0.4,0.3,0.6,0.4c0.1,0.1,0.2,0.1,0.3,0.2
	c0.3,0.2,0.6,0.4,0.9,0.6c0.1,0,0.2,0.1,0.3,0.1c0.2,0.1,0.5,0.3,0.7,0.4c0.1,0.1,0.3,0.1,0.4,0.2c0.2,0.1,0.3,0.2,0.5,0.3
	c0,0,0.1,0,0.1,0.1c0.1,0,0.1,0.1,0.2,0.1c0.3,0.1,0.5,0.3,0.8,0.4c0.1,0,0.1,0,0.2,0.1c0.3,0.1,0.6,0.3,0.9,0.4
	c0.1,0,0.1,0.1,0.2,0.1c0.3,0.1,0.6,0.2,0.9,0.3c0,0,0.1,0,0.1,0c0.3,0.1,0.7,0.2,1,0.3c0.1,0,0.2,0.1,0.2,0.1
	c0.3,0.1,0.7,0.2,1,0.3c22,4,28.4-13.2,28.4-13.2c-5.4,7-14.9,8.8-24,6.8c-0.3-0.1-0.7-0.2-1-0.3c-0.1,0-0.2,0-0.2-0.1
	c-0.3-0.1-0.7-0.2-1-0.3c0,0-0.1,0-0.1-0.1c-0.3-0.1-0.6-0.2-0.9-0.3c-0.1,0-0.2-0.1-0.2-0.1c-0.3-0.1-0.6-0.3-0.9-0.4
	c-0.1,0-0.1-0.1-0.2-0.1c-0.3-0.1-0.5-0.2-0.8-0.4c-0.1,0-0.1-0.1-0.2-0.1c-0.2-0.1-0.4-0.2-0.6-0.3c-0.1-0.1-0.3-0.1-0.4-0.2
	c-0.2-0.1-0.5-0.3-0.7-0.4c-0.1-0.1-0.2-0.1-0.2-0.1c-0.3-0.2-0.6-0.4-0.9-0.6c-0.1-0.1-0.2-0.1-0.3-0.2c-0.2-0.1-0.5-0.3-0.7-0.4
	C26,47,25.9,47,25.9,46.9c-0.2-0.1-0.4-0.3-0.6-0.5c-0.1-0.1-0.2-0.1-0.3-0.2c-0.2-0.1-0.4-0.3-0.6-0.4c-0.1-0.1-0.2-0.1-0.3-0.2
	c-0.2-0.2-0.5-0.4-0.7-0.6c0,0-0.1,0-0.1-0.1c-0.2-0.2-0.5-0.5-0.7-0.7c-0.1-0.1-0.1-0.1-0.2-0.2c-0.2-0.2-0.4-0.3-0.5-0.5
	c-0.1-0.1-0.1-0.1-0.2-0.2c-0.2-0.2-0.4-0.5-0.7-0.7c0,0,0,0,0,0c-0.2-0.2-0.4-0.5-0.7-0.8c-0.1-0.1-0.1-0.1-0.2-0.2
	c-0.2-0.2-0.3-0.4-0.5-0.6c-0.1-0.1-0.1-0.1-0.2-0.2c-0.2-0.2-0.4-0.5-0.6-0.7c-5-6.8-6.8-16.3-2.8-24"/>
<path class="st0" d="M26.7,15c-3.3,4.7-3.1,11.1-0.5,16.1c0.4,0.8,0.9,1.7,1.5,2.4c0.5,0.7,1,1.5,1.7,2.1c0.2,0.3,0.5,0.5,0.7,0.8
	c0.1,0.1,0.1,0.1,0.2,0.2c0.2,0.2,0.5,0.5,0.8,0.7c0,0,0,0,0,0c0,0,0,0,0,0c0.3,0.3,0.6,0.5,0.9,0.7c0.1,0.1,0.1,0.1,0.2,0.2
	c0.3,0.2,0.6,0.5,0.9,0.7c0,0,0,0,0,0c0.1,0.1,0.3,0.2,0.4,0.3c0.1,0,0.1,0.1,0.2,0.1c0.2,0.1,0.5,0.3,0.7,0.4c0,0,0.1,0,0.1,0.1
	c0.2,0.1,0.4,0.2,0.6,0.3c0.1,0,0.1,0.1,0.2,0.1c0.1,0.1,0.3,0.1,0.4,0.2c0,0,0,0,0.1,0c0.3,0.1,0.6,0.3,0.9,0.4
	c0.1,0,0.1,0.1,0.2,0.1c0.2,0.1,0.5,0.2,0.7,0.3c0.1,0,0.2,0.1,0.3,0.1c0.2,0.1,0.4,0.2,0.7,0.2c0.1,0,0.2,0.1,0.3,0.1
	c0.3,0.1,0.6,0.2,1,0.3c17,2.8,20.9-10.3,20.9-10.3c-3.5,5.1-10.4,7.5-17.7,5.6c-0.3-0.1-0.6-0.2-1-0.3c-0.1,0-0.2-0.1-0.3-0.1
	c-0.2-0.1-0.5-0.1-0.7-0.2c-0.1,0-0.2-0.1-0.3-0.1c-0.2-0.1-0.5-0.2-0.7-0.3c-0.1,0-0.1-0.1-0.2-0.1c-0.3-0.1-0.6-0.3-0.9-0.4
	c-0.1-0.1-0.3-0.2-0.4-0.2c-0.1,0-0.2-0.1-0.3-0.1c-0.2-0.1-0.4-0.2-0.6-0.3c0,0-0.1,0-0.1-0.1c-0.2-0.1-0.5-0.3-0.7-0.4
	c-0.1,0-0.1-0.1-0.2-0.1c-0.1-0.1-0.3-0.2-0.4-0.3c-0.3-0.2-0.6-0.4-0.9-0.7c-0.1-0.1-0.1-0.1-0.2-0.2c-3.2-2.5-5.7-6-6.9-9.9
	c-1.3-4.1-1-8.6,1.2-12.3"/>
<path class="st0" d="M38.6,10.9c-1.9,2.9-2.1,6.4-0.8,9.6c1.4,3.4,4.3,6,7.7,7.2c0.1,0.1,0.3,0.1,0.4,0.1c0.1,0,0.1,0,0.2,0.1
	c0.2,0.1,0.4,0.1,0.6,0.2c9.4,1.8,11.9-4.8,12.6-5.8c-2.2,3.2-6,4-10.6,2.9c-0.4-0.1-0.8-0.2-1.1-0.3c-0.4-0.2-0.9-0.3-1.3-0.5
	c-0.8-0.4-1.6-0.9-2.3-1.4c-4.1-3.1-6.7-9.1-4-13.9"/>
<path class="st1" d="M256.2,24.3l0.4,1.6c0.1,0.4-0.2,0.8-0.6,0.8"/>
<path class="st1" d="M226.6,21.6c-0.1,0.4-0.2,1-0.3,1.3l-3.3,15.2l3.4-16L226.6,21.6z"/>
<polygon class="st1" points="129.2,31.8 127.4,38.1 129.2,31.8 "/>
<path class="st1" d="M256.6,25.8l-0.9-4c-0.7-2.9-2.8-4.2-7.5-4.2h-19.8c-0.5,0-0.9,0.2-1,0.7l-7.5,35.6c-0.1,0.5-0.1,0.8-0.1,1
	c0.1,0.2,0.9,0.2,1.4,0.2h6.9c0.5,0,1.3,0,1.5-0.1c0.3-0.1,0.4-0.8,0.5-1.2l2.4-12.5l3-13.9c0.1-0.4,0.5-0.8,1-0.8l19.6,0
	C256.4,26.6,256.7,26.3,256.6,25.8"/>
<path class="st1" d="M284.5,11.4c-0.5,0-8.7,0-8.7,0c-0.5,0-1,0.5-1.3,0.9l-15.3,22.5c-0.3,0.4-0.6,0.4-0.7-0.1l-1.1-4.9
	c-0.1-0.4-0.6-0.8-1-0.8h-9.8c-0.5,0-0.7,0.4-0.6,0.8l4.4,15.4c0.1,0.4,0.1,1.2,0,1.6l-2.1,7.8c-0.1,0.4,0.2,0.6,0.6,0.6h9.7
	c0.5,0,0.9-0.1,1-0.6l2.1-7.9c0.1-0.4,0.4-1,0.7-1.4l24.9-33c0.3-0.4,0.2-0.8-0.2-0.8L284.5,11.4z"/>
<path class="st1" d="M182.4,17.7h-8.9c-0.5,0-0.9,0.2-1,0.6L169.6,32l-2.9,13.1c-0.1,0.4-0.5,0.4-1,0.4h-5.8c-5.8,0-5.1-3.6-3.9-9.1
	c0-0.1,3.7-18.1,3.7-18.1c0.1-0.4-0.2-0.6-0.7-0.6h-8.4c-0.5,0-0.9,0.2-1,0.6l-3.4,18.1c-1.7,9.8-1.7,18.4,9.6,18.7
	c0.2,0,17.9,0,17.9,0c0.5,0,0.9-0.2,1-0.6l3.9-18.2l3.8-18.2C182.4,18.1,182.5,17.7,182.4,17.7z"/>
<path class="st1" d="M94.2,17.6h-9.5c-0.5,0-0.9,0.1-1,0.6L82,25.6c-0.1,0.4,0.2,0.8,0.7,0.8h9.1c0.5,0,0.9-0.4,1-0.9l1.6-7.5
	C94.4,18.1,94.5,17.6,94.2,17.6z"/>
<path class="st1" d="M82,28.9c-0.5,0-0.9,0.4-1,0.8l-1.3,5.7l-2.9,13.1c0,0-1.5,6.9-1.7,7.4c0,0-1.3,5-4.3,4.8c-1.4-0.1-3-0.4-3-0.4
	h0c-0.9-0.3-0.9,0.6-1,1.1l-1.9,8.1c-0.1,0.4,0.2,0.8,0.6,0.9c0,0,4.1,0.6,7,0.6H73c7.1,0,10.9-4.2,13.3-15.6l2.8-13.2l2.6-12.3
	c0.1-0.4-0.2-0.9-0.6-0.9"/>
<path class="st1" d="M204.8,17.6c-16,0-19.8,9.9-21.9,19.6c-2.1,10-1.9,17.9,14.6,17.9h0.6c6.6,0,14.5,0,14.5,0c0.4,0,0.9-0.4,1-0.9
	l1.6-6.3c0.1-0.4-0.2-0.6-0.7-0.6h-14.9c-5.4,0-7.3-1.7-7.1-5.4c0-0.4,0.5-1.5,0.9-1.5h22.9c1,0,1-0.6,1-0.6
	C219.7,29.3,219.9,17.6,204.8,17.6 M209,33.3c0,0.5-1.6,0.4-1.6,0.4L195,33.6c-0.4,0-0.6-0.6-0.6-1c0,0,0-0.5,0.1-0.6
	c1-3.3,3.8-5.2,8.4-5.2c5.1,0,6.2,2.5,6.2,5.4"/>
<path class="st1" d="M135.8,44.8c0,0,4.5-10.9,5.5-17.1c1.4-8.4-2.8-20.6-19.1-20.6C106,7.1,99,18.7,96.3,31.4
	c-2.7,12.7,0.8,23.8,16.9,23.7l24.5,0c0.5,0,0.9-0.4,1-0.8l2.1-7.9c0.1-0.4-0.2-0.8-0.6-0.8l-2,0l-2,0c-0.4,0-0.6-0.3-0.6-0.6
	C135.7,44.9,135.7,44.9,135.8,44.8 M127.3,38.1l-1.8,6.3c-0.1,0.4-0.6,0.7-1.1,0.7h-9.5c-7.2,0-9-5.6-7.2-13.9
	c1.8-8.5,5.2-13.7,12.3-14.3c9.7-0.7,11.7,6.1,9.3,14L127.3,38.1z"/>
</svg>
