<?xml version="1.0" encoding="utf-8"?>
<!-- Generator: Adobe Illustrator 25.0.1, SVG Export Plug-In . SVG Version: 6.00 Build 0)  -->
<svg version="1.1" id="Layer_1" xmlns="http://www.w3.org/2000/svg" xmlns:xlink="http://www.w3.org/1999/xlink" x="0px" y="0px"
	 viewBox="0 0 589.8 361.2" style="enable-background:new 0 0 589.8 361.2;" xml:space="preserve">
<style type="text/css">
	.st0{fill:#689F63;}
	.st1{fill-rule:evenodd;clip-rule:evenodd;fill:#333333;}
	.st2{fill-rule:evenodd;clip-rule:evenodd;fill:#689F63;}
	.st3{fill:#3E853D;}
	.st4{fill:#74AB63;}
	.st5{fill:#FEFEFE;}
	.st6{fill:#55944E;}
	.st7{fill:#59AA46;}
	.st8{fill:#A1C3A0;}
	.st9{fill:#AACEA4;}
	.st10{fill:#DCE9D8;}
	.st11{fill:#78B360;}
	.st12{fill:#74B759;}
	.st13{fill:#6BBE47;}
	.st14{fill:#70BA51;}
	.st15{fill:#6DBC4C;}
	.st16{fill:#56994C;}
	.st17{fill:#58A349;}
	.st18{fill:#579D4B;}
	.st19{fill:#6EA55F;}
	.st20{fill:#649A59;}
	.st21{fill:#6BA25D;}
	.st22{fill:#68A05C;}
	.st23{fill:#649D59;}
	.st24{fill:#3E863D;}
	.st25{fill:#5E9954;}
	.st26{fill:#4B8E47;}
	.st27{fill:#589550;}
	.st28{fill:#51924B;}
	.st29{fill:#468A43;}
	.st30{fill:#54924E;}
	.st31{fill:#4D8E48;}
	.st32{fill:#609756;}
</style>
<path class="st0" d="M291.5,361.2c-1.9,0-3.9-0.5-5.6-1.5l-17.8-10.5c-2.7-1.5-1.4-2-0.5-2.3c3.5-1.2,4.3-1.5,8-3.7
	c0.4-0.2,0.9-0.1,1.3,0.1l13.7,8.1c0.5,0.3,1.2,0.3,1.7,0l53.3-30.7c0.5-0.3,0.8-0.9,0.8-1.4v-61.5c0-0.6-0.3-1.2-0.8-1.5
	l-53.2-30.7c-0.5-0.3-1.1-0.3-1.6,0l-53.2,30.7c-0.5,0.3-0.8,0.9-0.8,1.5v61.5c0,0.6,0.3,1.1,0.8,1.4l14.6,8.4
	c7.9,4,12.8-0.7,12.8-5.4V263c0-0.9,0.7-1.5,1.5-1.5h6.7c0.8,0,1.5,0.7,1.5,1.5v60.7c0,10.6-5.8,16.6-15.8,16.6
	c-3.1,0-5.5,0-12.3-3.3l-14-8.1c-3.5-2-5.6-5.7-5.6-9.7v-61.5c0-4,2.1-7.7,5.6-9.7l53.3-30.8c3.4-1.9,7.9-1.9,11.2,0l53.3,30.8
	c3.4,2,5.6,5.7,5.6,9.7v61.5c0,4-2.1,7.7-5.6,9.7l-53.3,30.8C295.4,360.7,293.5,361.2,291.5,361.2"/>
<path class="st0" d="M308,318.9c-23.3,0-28.2-10.7-28.2-19.7c0-0.9,0.7-1.5,1.5-1.5h6.9c0.8,0,1.4,0.6,1.5,1.3
	c1,7,4.1,10.5,18.2,10.5c11.2,0,16-2.5,16-8.5c0-3.4-1.4-6-18.8-7.7c-14.6-1.4-23.6-4.7-23.6-16.3c0-10.7,9.1-17.1,24.3-17.1
	c17.1,0,25.5,5.9,26.6,18.6c0,0.4-0.1,0.9-0.4,1.2c-0.3,0.3-0.7,0.5-1.1,0.5h-6.9c-0.7,0-1.3-0.5-1.5-1.2c-1.7-7.4-5.7-9.7-16.6-9.7
	c-12.3,0-13.7,4.3-13.7,7.5c0,3.9,1.7,5,18.2,7.2c16.4,2.2,24.1,5.2,24.1,16.7C334.5,312.3,324.8,318.9,308,318.9 M372.8,253.8h1.8
	c1.5,0,1.7-1,1.7-1.6c0-1.6-1.1-1.6-1.7-1.6h-1.8L372.8,253.8z M370.6,248.7h4c1.4,0,4,0,4,3c0,2.1-1.4,2.6-2.2,2.8
	c1.6,0.1,1.7,1.1,1.9,2.6c0.1,0.9,0.3,2.5,0.6,3h-2.4c-0.1-0.5-0.4-3.5-0.4-3.6c-0.2-0.7-0.4-1-1.2-1h-2v4.6h-2.2V248.7z
	 M365.9,254.5c0,4.8,3.9,8.6,8.6,8.6c4.8,0,8.6-3.9,8.6-8.6c0-4.8-3.9-8.6-8.6-8.6C369.8,245.9,365.8,249.6,365.9,254.5
	 M384.7,254.5c0,5.7-4.6,10.3-10.3,10.3c-5.6,0-10.3-4.6-10.3-10.3c0-5.8,4.8-10.3,10.3-10.3C380,244.2,384.7,248.7,384.7,254.5"/>
<path class="st1" d="M126.6,120.7c0-2.5-1.3-4.7-3.4-5.9L66.7,82.3c-1-0.6-2-0.9-3.1-0.9H63c-1.1,0-2.2,0.3-3.1,0.9L3.4,114.8
	C1.3,116,0,118.3,0,120.7l0.1,87.5c0,1.2,0.6,2.3,1.7,2.9c1,0.6,2.3,0.6,3.4,0L38.8,192c2.1-1.3,3.4-3.5,3.4-5.9v-40.9
	c0-2.4,1.3-4.7,3.4-5.9l14.3-8.2c1.1-0.6,2.2-0.9,3.4-0.9c1.2,0,2.4,0.3,3.4,0.9l14.3,8.2c2.1,1.2,3.4,3.5,3.4,5.9v40.9
	c0,2.4,1.3,4.7,3.4,5.9l33.6,19.2c1.1,0.6,2.4,0.6,3.4,0c1-0.6,1.7-1.7,1.7-2.9L126.6,120.7z M393.1,166.3c0,0.6-0.3,1.2-0.9,1.5
	L372.8,179c-0.5,0.3-1.2,0.3-1.7,0l-19.4-11.2c-0.5-0.3-0.9-0.9-0.9-1.5v-22.4c0-0.6,0.3-1.2,0.8-1.5l19.4-11.2
	c0.5-0.3,1.2-0.3,1.7,0l19.4,11.2c0.5,0.3,0.9,0.9,0.9,1.5L393.1,166.3z M398.3,0.4c-1.1-0.6-2.3-0.6-3.4,0c-1,0.6-1.7,1.7-1.7,2.9
	v86.7c0,0.9-0.5,1.6-1.2,2.1c-0.7,0.4-1.6,0.4-2.4,0L375.5,84c-2.1-1.2-4.7-1.2-6.8,0l-56.5,32.6c-2.1,1.2-3.4,3.5-3.4,5.9v65.2
	c0,2.4,1.3,4.7,3.4,5.9l56.5,32.6c2.1,1.2,4.7,1.2,6.8,0l56.5-32.6c2.1-1.2,3.4-3.5,3.4-5.9V25.2c0-2.5-1.3-4.8-3.5-6L398.3,0.4z
	 M586.4,143.3c2.1-1.2,3.4-3.5,3.4-5.9v-15.8c0-2.4-1.3-4.7-3.4-5.9l-56.1-32.6c-2.1-1.2-4.7-1.2-6.8,0L467,115.7
	c-2.1,1.2-3.4,3.5-3.4,5.9v65.2c0,2.5,1.3,4.7,3.4,5.9l56.1,32c2.1,1.2,4.6,1.2,6.7,0l33.9-18.9c1.1-0.6,1.7-1.7,1.7-3
	c0-1.2-0.7-2.4-1.7-3L507,167.4c-1.1-0.6-1.7-1.7-1.7-2.9V144c0-1.2,0.6-2.3,1.7-3l17.7-10.2c1.1-0.6,2.3-0.6,3.4,0l17.7,10.2
	c1.1,0.6,1.7,1.7,1.7,2.9v16.1c0,1.2,0.7,2.3,1.7,3c1.1,0.6,2.4,0.6,3.4,0L586.4,143.3z"/>
<path class="st2" d="M526.1,140.3c0.4-0.2,0.9-0.2,1.3,0l10.8,6.3c0.4,0.2,0.7,0.7,0.7,1.1v12.5c0,0.5-0.2,0.9-0.7,1.1l-10.8,6.3
	c-0.4,0.2-0.9,0.2-1.3,0l-10.8-6.3c-0.4-0.2-0.7-0.7-0.7-1.1v-12.5c0-0.5,0.2-0.9,0.7-1.1L526.1,140.3z"/>
<g>
	<path class="st3" d="M218.6,225.9c-0.9,0-1.8,0-2.6,0c-3.3-0.5-5.9-2.7-8.7-4.3c-6.7-3.7-13.2-7.6-19.8-11.4
		c-5.7-3.3-11.5-6.6-17.2-9.9c-4-2.3-8-4.6-12-6.9c-1-0.6-2-1.2-2.4-2.4c0-1,0.6-1.9,1.1-2.7c2.6-4.5,5.2-8.9,7.8-13.3
		c0.1-0.2,0.3-0.5,0.5-0.7c1.8-3.4,3.8-6.6,5.7-10c0.2-0.4,0.5-0.7,0.7-1.1c1.5-2.6,2.9-5.3,4.6-7.7c0.3-0.6,0.5-1.2,0.9-1.8
		c0.3-0.5,0.6-1,1.4-1c0.8,0.3,1.1,1,1.3,1.7c0.2,0.6,0.6,1.1,1,1.6c1.4,2.9,3.1,5.5,4.5,8.4c0.3,0.6,0.4,1.3,1,1.7
		c1.7,3.1,3.3,6.2,5,9.2c0.5,0.9,0.7,1.9,1.4,2.6c2.3,4,4.5,8.2,6.7,12.2c0.3,0.6,0.4,1.4,1,1.8c2.7,5.2,5.6,10.2,8.4,15.3
		c0.4,0.7,0.8,1.5,1.1,2.2c1.6,2.6,2.9,5.2,4.4,7.8c1.2,2.1,2.4,4.3,3.5,6.4C218.5,224.2,219.2,224.9,218.6,225.9z"/>
	<path class="st4" d="M218.6,225.9c-2.8-5-5.5-10.1-8.3-15.1c-0.2-0.4-0.4-0.8-0.6-1.2c0.2-0.3,0.1-0.6,0.1-0.9
		c0-40.2,0-80.4,0-120.6c0-0.6,0.1-1.3,0-1.9c0-0.4,0.1-0.8,0.5-1c2-1.2,3.9-2.7,6.4-2.6c0.6,0,1.2,0,1.7,0c0.3,0,0.6-0.1,0.9,0.1
		c0.9,1.2,1.6,2.5,2.4,3.8c0.4,0.7,1,1.5,0.8,2.4c0.8,7,0.4,14.1,0.4,21.2c0.1,36.9,0,73.7,0,110.6c0,1,0,2-0.1,3
		c0.1,1.1-0.6,1.4-1.4,1.7c-0.8,0.3-1.6,0.3-2.4,0.5C219,225.9,218.8,225.9,218.6,225.9z"/>
	<path class="st5" d="M216.7,82.6c-2.5,0.5-4.4,2.1-6.5,3.2c-0.2,0.6-0.6,1-1.2,1.3c-2.9,1.7-5.8,3.4-8.7,5
		c-2.6,1.6-5.3,3.1-7.9,4.5c-2,1.3-4.1,2.4-6.2,3.6c-1.9,1.2-3.8,2.3-5.8,3.3c-4.8,2.9-9.8,5.7-14.7,8.5c-2.4,1.4-4.9,2.9-7.3,4.2
		c-1.4,0.9-2.3,2.1-2.8,3.7c-0.1,0.4-0.3,0.9-1,0.8c0-12.5,0-24.9,0-37.4c0-0.9,0.2-1,1.1-1c20.4,0,40.7,0,61.1,0
		C216.9,82.5,216.9,82.5,216.7,82.6z"/>
	<path class="st5" d="M219.4,82.8c-0.3-0.1-0.5-0.2-0.8-0.2c-0.2-0.1-0.2-0.1,0-0.2c20.4,0,40.8,0,61.2,0c0.8,0,1,0.2,1,1
		c0,12.5,0,25,0,37.4c-0.1,0.1-0.2,0.1-0.3,0.1c-0.8-0.5-0.7-1.4-1.1-2c-0.2-0.4-0.4-0.8-0.7-1.1c-0.8-0.9-1.9-1.4-3-2
		c-8.5-5-17-9.8-25.5-14.8c-0.7-0.4-1.2-1.2-2.1-1.3c-3.6-1.9-7-4-10.5-6c-5.7-3.3-11.4-6.7-17.2-9.9
		C220.1,83.5,219.7,83.3,219.4,82.8z"/>
	<path class="st5" d="M156.2,190.8c0.5,0.8,1.3,1.3,2,1.8c18.6,10.8,37.2,21.5,55.8,32.3c0.6,0.4,1.4,0.4,1.9,1
		c-20.2,0-40.3,0-60.5,0c-0.8,0-1-0.2-1-1c0-12.4,0-24.8,0-37.2c1.3,0.2,1,1.4,1.5,2.1C156.2,190.1,156,190.5,156.2,190.8z"/>
	<path class="st5" d="M219.1,225.9c1.2-0.6,2.6-1,3.6-1.9c0-0.7,0.6-0.9,1-1.2c3-1.8,6-3.4,9-5.2c3-1.8,6.2-3.4,9.1-5.3
		c1.3-0.7,2.6-1.4,3.9-2.1c0.3-0.1,0.5-0.5,0.8-0.6c1.3-0.6,2.5-1.4,3.8-2.1c1.2-0.9,2.5-1.4,3.8-2.2c1.2-0.8,2.4-1.4,3.7-2.1
		c1.2-0.9,2.5-1.5,3.8-2.2c1.3-1,2.7-1.6,4.1-2.4c3.1-1.9,6.2-3.6,9.3-5.4c0.9-0.5,1.8-0.9,2.6-1.5c1.3-1,2.1-2.4,2.5-4.1
		c0.1-0.1,0.2-0.3,0.4-0.4c0.1-0.1,0.2,0,0.3,0c0,12.6,0,25.1,0,37.7c0,0.8-0.2,1-1,1C259.6,225.8,239.4,225.9,219.1,225.9z"/>
	<path class="st6" d="M154.6,120.8c0.3-0.7,0.5-1.4,0.9-2.1c0.6-1.2,1.4-2.2,2.7-2.7c0.6-0.1,1,0.2,1.2,0.7
		c2.3,4.1,4.5,8.2,6.7,12.2c2,3.6,3.8,7.2,5.8,10.7c0.3,0.5,0.7,1,0.2,1.7c-0.4,0.3-0.8,0.3-1.2,0.1c-0.5-0.2-1-0.4-1.5-0.6
		c-4.3-2.2-8.7-4.4-13.1-6.4c-0.7-0.3-1.4-0.6-1.6-1.4c0-3.5,0-7,0-10.5c0-0.4,0.1-0.8-0.1-1.2C154.6,121.1,154.6,120.9,154.6,120.8
		z"/>
	<path class="st7" d="M156.2,190.8c-1-0.8-1-2.2-1.7-3.1c0-0.2,0-0.3,0-0.5c0.2-0.4,0.1-0.9,0.1-1.3c0-5.5,0-11.1,0-16.6
		c0.3-1.1,1-0.8,1.6-0.5c1.7,0.8,3.4,1.5,5.1,2.4c1.1,0.6,2.3,1.1,3.4,1.7c0.5,0.3,1,0.6,0.8,1.3c-1.9,3.6-4,6.9-6,10.4
		C158.5,186.7,157.1,188.6,156.2,190.8z"/>
	<path class="st8" d="M280.8,187.2L280.8,187.2l-0.2,0c-0.6-0.7-0.6-1.5-0.6-2.3c0-3,0-6,0-8.9c0-2-0.1-3.9,0-5.9
		c0-0.8,0-1.5,0.1-2.2c-0.1-1.5-0.1-2.9-0.1-4.4c0-2.8,0-5.7,0-8.5c0-0.8,0-1.7,0.1-2.5c-0.2-5.5-0.1-11.1-0.1-16.7
		c0-4.4,0-8.7,0-13.1c0-0.7-0.2-1.5,0.6-1.9c0.1,0,0.1,0,0.2,0C280.8,142.9,280.8,165.1,280.8,187.2z"/>
	<path class="st9" d="M154.9,169c0,5.6,0,11.3,0,16.9c0,0.5,0.2,1-0.2,1.4c0-22,0-44,0-66c0.4,0.4,0.2,0.9,0.2,1.4
		c0,3.5,0,7.1,0,10.6c0.4,0.3,0.5,0.8,0.5,1.3c0,3.4,0.1,6.8-0.1,10.2c0.2,3.3,0.1,6.6,0.1,9.9c0,4.1,0,8.2,0,12.4
		C155.4,167.7,155.5,168.4,154.9,169z"/>
	<path class="st10" d="M218.6,82.4c0,0.1,0,0.1,0,0.2c-0.6,0-1.3,0-1.9,0c0-0.1,0-0.1,0-0.2C217.4,82.4,218,82.4,218.6,82.4z"/>
	<path class="st11" d="M200.1,91.7c3.4-2,6.7-3.9,10.1-5.9c0.2,0.6,0.2,1.2,0.2,1.8c0,40.1,0,80.2,0,120.3c0,0.6,0.3,1.4-0.7,1.7
		c-1.5-2.6-2.9-5.2-4.4-7.8c-1.8-3.2-3.5-6.5-5.3-9.7c-0.4-0.9-0.3-1.8-0.3-2.7c0-32.1,0-64.2,0-96.3
		C199.8,92.6,199.8,92.1,200.1,91.7z"/>
	<path class="st12" d="M200.1,91.7c0.2,0.7,0.3,1.4,0.3,2.1c0,31.9,0,63.8,0,95.7c0,0.8-0.1,1.7-0.2,2.5c-2.7-4.6-5.2-9.4-7.7-14.1
		c-0.4-1.7-0.3-3.3-0.3-5c0-25.1,0-50.3,0-75.4c0-0.4,0-0.8,0.1-1.2C194.8,94.6,197.5,93.1,200.1,91.7z"/>
	<path class="st13" d="M172.1,141.2c-4.4-8.2-8.9-16.3-13.4-24.5c-0.1-0.3-0.4-0.5-0.6-0.7c5.8-3.4,11.6-6.8,17.4-10.1
		c1.5-0.9,3.1-1.7,4.6-2.6c0.7,0,0.8,0.4,0.8,0.9c0.1,0.7,0.1,1.4,0.1,2.2c0,14.9,0,29.9,0,44.8c0,1.2-0.1,2.3,0.1,3.5
		c0.1,0.6,0,1.2-0.7,1.5c-0.8-1-1.3-2.2-1.9-3.4c-0.5-0.1-0.9-0.4-1.2-0.9c-1.7-3.1-3.4-6.2-5.1-9.3
		C172.1,142.1,171.9,141.7,172.1,141.2z"/>
	<path class="st14" d="M192.2,96.3c0.7,0.5,0.5,1.2,0.5,1.9c0,12.7,0,25.3,0,38c0,13.3,0,26.5,0,39.8c0,0.7,0.1,1.4-0.3,2
		c-2.3-3.8-4.4-7.8-6.5-11.8c-0.2-1.2-0.3-2.4-0.3-3.6c0-20.4,0-40.7,0-61.1c0-0.6-0.1-1.1,0.3-1.6C188,98.5,190.1,97.4,192.2,96.3z
		"/>
	<path class="st15" d="M186,99.8c0.2,0.7,0.3,1.4,0.3,2.1c0,20.7,0,41.4,0,62c0,0.7,0,1.4-0.3,2.1c-2-3.3-3.8-6.6-5.5-10.1
		c0.3-1.1,0-2.2,0-3.3c0-15.9,0-31.8,0-47.7c0-0.6,0.2-1.3-0.3-1.8C182.1,102,184,100.8,186,99.8z"/>
	<path class="st16" d="M172.1,141.2c1.4,2.6,2.9,5.1,4.3,7.7c0.7,1.3,1.4,2.6,2.1,3.9c-0.9,0.7-1.2,2-1.9,2.8
		c-0.4,0.2-0.8,0-1.1-0.2c-6.4-3.3-12.9-6.3-19.3-9.5c-0.5-0.3-1-0.6-1.4-1.1c0-3.8,0-7.7,0-11.5c2,0.5,3.8,1.7,5.7,2.5
		c3.5,1.6,6.9,3.5,10.4,5.1C171.3,141,171.7,141.1,172.1,141.2z"/>
	<path class="st17" d="M154.9,169c0-4.8,0-9.6,0-14.4c0.6-0.6,1.2-0.1,1.8,0.2c4.4,2,8.6,4.2,12.9,6.3c0.6,0.3,1.2,0.5,1.7,0.8
		c0.6,0.2,1,0.6,0.9,1.4c-2.1,3.7-4.2,7.5-6.5,11c0-0.1-0.1-0.2-0.1-0.2C162.1,172.2,158.6,170.4,154.9,169z"/>
	<path class="st18" d="M172.1,163.2c-0.2-0.3-0.4-0.6-0.8-0.7c-5.4-2.6-10.7-5.2-16.1-7.8c-0.1-0.1-0.2-0.1-0.3-0.1
		c0-3.3,0-6.6,0-9.8c0.4,0,0.8,0.2,1.1,0.3c6.4,3.2,12.9,6.3,19.3,9.5c0.5,0.2,0.9,0.6,1.4,0.9C175.1,158.1,173.8,160.8,172.1,163.2
		z"/>
	<path class="st19" d="M233.1,218c-3.4,2.1-6.8,4-10.3,5.9c-0.4-0.6-0.3-1.2-0.3-1.9c0-43.2,0-86.4,0-129.5c0-1.4-0.2-2.8-0.3-4.2
		c0.7-0.2,1,0.4,1.3,0.8c1.6,2.7,3.2,5.4,4.7,8.1c0.8,1.5,1.5,3.1,2.7,4.5c0.6,1,1.2,2.1,1.8,3.1c0.3,0.6,0.7,1.2,0.6,1.9
		c0.8,8.1,0.3,16.1,0.3,24.2c0.1,28,0,55.9,0,83.9C233.6,216,233.7,217,233.1,218z"/>
	<path class="st20" d="M230.4,102.1c-2.1-3.6-4.2-7.2-6.3-10.7c-0.6-1-1-2.1-1.8-2.9c-0.9-1.5-1.7-3.1-2.6-4.6
		c-0.2-0.3-0.5-0.6-0.2-1c0.7,0,1.2,0.4,1.8,0.7c8.9,5.2,17.9,10.3,26.8,15.5c0.1,0.1,0.3,0.2,0.4,0.3c4.4,4.9,8,10.5,12,15.8
		c3.9,5.1,7.5,10.3,11.5,15.3c0.1,1.3-0.8,2.2-1.3,3.2c-1.7,3.1-3.4,6.3-5.1,9.4c-0.3,0.5-0.5,0.9-1,1.1c-1.5,0.4-2.2-0.6-3-1.6
		c-5.7-7.7-11.4-15.5-17.1-23.2c-4.3-5.7-8.5-11.5-12.8-17.2c-0.6-0.8-1.1-1.6-1.5-2.4C230.2,100.4,231.4,101,230.4,102.1z"/>
	<path class="st3" d="M264.2,143.8c1.5-2.7,3.1-5.5,4.6-8.2c1-1.7,1.9-3.5,2.8-5.2c-0.4-0.5-0.2-0.9,0-1.3c2-3.6,4-7.2,6-10.8
		c0.3-0.5,0.6-1.2,1.4-0.8c0.8,1,1.3,2.1,1.5,3.3c0,9.9,0,19.8,0,29.7c0,0.7,0,1.4,0,2c-0.5,0.6-1.1,0.3-1.6,0
		c-1.6-0.8-3.3-1.6-4.9-2.5c-2.9-1.5-5.9-2.8-8.8-4.3c-0.5-0.3-1.1-0.5-1.3-1.1C263.8,144.2,263.9,144,264.2,143.8z"/>
	<path class="st21" d="M279.1,117.4c-0.3,0.1-0.5,0.3-0.6,0.5c-2.3,4.1-4.5,8.3-6.8,12.4c-1.5-0.6-2.1-2.1-3-3.3
		c-5.1-6.9-10.2-13.8-15.3-20.7c-1.5-2.1-3-4.1-4.5-6.2c-0.2-0.3-0.4-0.6-0.4-1c6.5,3.7,13.1,7.5,19.6,11.3c3,1.7,6,3.5,9,5.2
		C277.8,116.2,278.5,116.7,279.1,117.4z"/>
	<path class="st22" d="M233.1,218c0-0.7,0-1.4,0-2c0-31.7,0-63.3,0-95c0-4.9,0.2-9.7-0.2-14.6c0.9-0.2,1.1,0.6,1.4,1.1
		c1.8,3.1,3.7,6.2,5.5,9.4c0.5,0.9,1.1,1.8,1.6,2.8c0.2,0.5,0.6,1,0.6,1.6c0,0.4,0,0.8,0.1,1.2c0.9,1.8,0.8,3.7,0.8,5.6
		c0,27.2,0,54.4,0,81.6c0,1.1,0.1,2.2-0.5,3.1C239.2,214.6,236.1,216.3,233.1,218z"/>
	<path class="st23" d="M242.2,212.7c0-2,0-4.1,0-6.1c0-26.3,0-52.7,0-79c0-2-0.1-3.9-0.8-5.8c-0.1-0.3-0.1-0.7-0.2-1.1
		c0.5-0.2,0.8,0.1,1,0.5c1.4,2.2,2.7,4.4,3.7,6.8c0.5,4.5,0.2,9,0.2,13.5c0,22.1,0,44.2,0,66.3c0,0.9,0.2,1.8-0.1,2.6
		C244.8,211.4,243.4,212,242.2,212.7z"/>
	<path class="st24" d="M280.5,187.7c-0.2,2.2-1.4,3.8-3.3,4.8c-3.8,2.2-7.6,4.3-11.3,6.5c-0.5-0.2-0.7-0.6-0.8-1.1
		c0-0.4,0-0.8,0-1.2c0-10.3,0-20.5,0-30.8c0-0.8-0.2-1.8,0.7-2.4c0.8-0.3,1.2,0.2,1.6,0.9c1.5,2.4,2.9,5,4.4,7.4
		c0.9,1.8,2.1,3.5,3.1,5.3c1.5,2.7,3.1,5.4,4.7,8.1C280.2,186,280.2,186.9,280.5,187.7z"/>
	<path class="st25" d="M250.6,207.9c-1.2,0.8-2.5,1.6-3.9,2.1c-0.4-0.2-0.6-0.6-0.6-1.1c0-0.2,0-0.5,0-0.7c0-25.5,0-51,0-76.4
		c0-0.2,0-0.5,0-0.7c0.5-0.8,1.1-0.9,1.8,0c0.8,1,1.6,2,2.3,3.1c3.4,5.2,7.1,10.1,10.8,15.1c0.1,0.2,0.3,0.3,0.3,0.5
		c0,0.5-0.3,0.8-0.7,0.9c-0.8,0.2-1.3-0.3-1.7-0.9c-1.2-1.9-2.4-3.7-3.7-5.4c-1.3-1.6-2.4-3.4-3.6-5.1c-0.2-0.2-0.3-0.5-0.6-0.4
		c-0.3,0.1-0.3,0.5-0.3,0.7c0,0.5,0,1,0,1.4c0,21.9,0,43.9,0,65.8C250.7,207.2,250.6,207.5,250.6,207.9z"/>
	<path class="st26" d="M280.5,163.5c0,1.4,0,2.9,0,4.3c-0.6,0.6-1.2,0.2-1.7,0c-2.6-1.3-5.2-2.6-7.8-3.9c-0.5-0.2-0.9-0.5-1.4-0.7
		c-1.3-0.7-2.7-1.5-4.3-0.8c-0.8-0.5-1.1-1.5-1.6-2.2c-0.4-0.6-0.7-1.3-1.3-1.9c-0.4,0.6-0.3,1.1-0.3,1.7c0,12.9,0,25.8,0,38.7
		c0,0.9,0,1.8-0.3,2.7c-1.2,0.9-2.5,1.5-3.8,2.2c-0.6-0.1-0.7-0.6-0.8-1.1c0-0.5-0.1-1-0.1-1.6c0-16.1,0-32.1,0-48.2
		c0-0.5,0-1,0-1.6c0-0.5,0.2-1,0.7-1.3c0.6-0.2,1,0.1,1.4,0.6c0.3,0.4,0.4,0.9,0.8,1.2c1.1,2.2,3.2,3,5.2,3.8
		c3.9,1.8,7.7,3.8,11.6,5.7c0.6,0.3,1.3,0.6,2,0.9C279.5,162.4,280.2,162.8,280.5,163.5z"/>
	<path class="st27" d="M259.9,152c-0.9-0.4-1-1.2-1.4-1.9c-0.7-0.1-1-0.6-1.3-1.1c-0.6-1-1.2-2-1.8-3c-0.1-0.2-0.3-0.5-0.5-0.4
		c-0.4,0.1-0.3,0.4-0.3,0.7c0,0.4,0,0.9,0,1.3c0,18.1,0,36.1,0,54.2c0,1.3,0,2.6-0.2,3.9c-1.1,0.9-2.5,1.5-3.7,2.2
		c-0.5-0.4-0.5-1-0.5-1.7c0-22.5,0-45,0-67.5c0-0.1,0-0.2,0-0.2c0-0.5-0.1-1.1,0.5-1.2c0.5-0.1,0.7,0.4,1,0.8
		c1.4,2.2,2.9,4.3,4.3,6.5c1.1,1.7,2.3,3.3,3.4,4.9c0.3,0.5,0.7,0.9,1.4,0.8C261.2,151.2,260.8,151.7,259.9,152z"/>
	<path class="st28" d="M254.3,205.7c-0.5-0.4-0.4-0.9-0.4-1.4c0-19.7,0-39.4,0-59.1c0-0.4-0.3-1.1,0.4-1.2c0.5-0.1,0.8,0.4,1,0.8
		c1,1.7,2.1,3.5,3.1,5.2c-0.6,0.3-0.7,0.9-0.7,1.5c0,16.9,0,33.8,0,50.7c0,0.4,0.1,0.9,0.3,1.3C256.8,204.4,255.6,205.1,254.3,205.7
		z"/>
	<path class="st29" d="M261.8,201.4c-0.3-0.4-0.2-0.9-0.2-1.4c0-14,0-28,0-42.1c0-0.2,0-0.4,0-0.6c0-0.2,0-0.5,0.2-0.6
		c0.4-0.2,0.5,0.1,0.7,0.4c0.9,1.4,1.7,2.9,2.6,4.3c0.2,0.3,0.4,0.6,0.6,0.9c0.7,0.2,1.1,0.6,0.7,1.4c-0.9,0.4-0.7,1.2-0.7,1.8
		c0,10.3,0,20.6,0,30.9c0,0.9,0,1.8,0.3,2.6C264.7,200,263.2,200.6,261.8,201.4z"/>
	<path class="st20" d="M246.5,130.6c0,25.4,0,50.9,0,76.3c0,1,0,2.1,0.2,3.1c-0.2,0.2-0.5,0.3-0.7,0.5c-0.4-0.6-0.3-1.2-0.3-1.9
		c0-24.9,0-49.8,0-74.7c0-2.1,0-4.2-0.5-6.2C246.5,128,247,129.3,246.5,130.6z"/>
	<path class="st30" d="M280.5,187.7c-3-5.2-6.1-10.4-9.1-15.6c0.4-0.6,1-0.5,1.6-0.3c2.2,0.9,4.4,2,6.5,3.1c0.5,0.2,0.7,0.6,1,1
		c0,3.8,0.1,7.5,0.1,11.3C280.6,187.4,280.5,187.6,280.5,187.7z"/>
	<path class="st29" d="M259.9,152c0.2-0.6,0.5-1.1,0.7-1.7c0.2-0.2,0.3-0.5,0.5-0.7c-0.3-1.3,1.8-4.8,2.9-5c5.1,2.5,10.2,5,15.3,7.5
		c0.4,0.2,0.8,0.4,1.2,0.4c0,3.7,0,7.4,0,11c-2.4-0.9-4.7-2.1-7-3.3c-3.6-1.8-7.3-3.6-10.9-5.3C261.2,154.2,260.4,153.3,259.9,152z"
		/>
	<path class="st31" d="M280.5,175.9c-2.4-1.2-4.9-2.3-7.3-3.5c-0.6-0.3-1.1-0.4-1.7-0.4c-1.7-2.8-3.4-5.6-5-8.4
		c-0.2-0.5-0.5-1-0.7-1.4c0.2-1.3,0.7-1.2,1.8-0.7c3.9,1.8,7.8,3.9,11.7,5.8c0.4,0.2,0.8,0.5,1.3,0.5
		C280.5,170.5,280.5,173.2,280.5,175.9z"/>
	<path class="st32" d="M264,144.5c-1,1.7-1.9,3.4-2.9,5c-0.5-0.1-0.8-0.5-1.1-0.8c-3.2-4.3-6.4-8.5-9.3-12.9c-1-1.5-2.1-2.9-3.1-4.4
		c-0.3-0.4-0.6-0.8-1.1-0.8c-0.3-1-0.5-2-1.2-2.9c-1.2-2.1-2.4-4.3-3.7-6.4c-0.1-0.2-0.3-0.4-0.4-0.6c-2.7-4.9-5.5-9.7-8.4-14.4
		c-0.8-1.4-1.6-2.9-2.4-4.3c0-1.4-1.2-2.4-1.4-3.9c0.8,0.4,1.1,1.1,1.5,1.6c7.9,10.7,15.8,21.4,23.7,32.1c2.5,3.4,5,6.8,7.5,10.2
		c0.6,0.9,1.2,1.8,2.5,1.8C264.1,144,264.1,144.3,264,144.5z"/>
</g>
</svg>
