<svg id="Layer_1" data-name="Layer 1" xmlns="http://www.w3.org/2000/svg" viewBox="0 0 178.24 36.57"><defs><style>.cls-1{fill:#bf454b;}.cls-2{fill:#bf4449;}</style></defs><path class="cls-1" d="M120.26,17.91a.76.76,0,0,1-.07-.43c0-1.33,0-2.66,0-4a1.69,1.69,0,0,0-.5-1.28,1.18,1.18,0,0,0-.77-.36l-.48,0H110.7a2.15,2.15,0,0,0-.9.14,1.22,1.22,0,0,0-.65.63,1.41,1.41,0,0,0-.16.76v19.4a3.06,3.06,0,0,0,.11.94,1.37,1.37,0,0,0,1.17.87h.54c2.51,0,5,0,7.54,0h.55a1.44,1.44,0,0,0,1.2-1.08,6.58,6.58,0,0,0,.09-1.25V28.93a.94.94,0,0,1,0-.37c.07-.08.16-.06.25-.06h6.58c.33,0,.36,0,.36.35,0,1.89,0,3.77,0,5.66a8.28,8.28,0,0,1-.21,1.64,6.62,6.62,0,0,1-.74,2A6,6,0,0,1,125,39.85a10.83,10.83,0,0,1-1.42.93,6.72,6.72,0,0,1-.85.32c-.3.11-.62.15-.93.24a3,3,0,0,1-.68,0c-2,.2-4.08.07-6.12.09s-4.1,0-6.14,0a8.41,8.41,0,0,1-1.42-.11,7.26,7.26,0,0,1-3.66-1.82A7.37,7.37,0,0,1,102.63,38,6.27,6.27,0,0,1,102,36.6a5.93,5.93,0,0,1-.2-.93,22.88,22.88,0,0,1-.1-3.7c0-6.51,0-13,0-19.54,0-.21,0-.43,0-.64a8.2,8.2,0,0,1,.23-1.64,5.84,5.84,0,0,1,.47-1.37,6.45,6.45,0,0,1,1.93-2.41,6.57,6.57,0,0,1,1.52-.87A6.38,6.38,0,0,1,107,5.15a14.5,14.5,0,0,1,2.71-.21h10.3a9.15,9.15,0,0,1,1.66.13,6.58,6.58,0,0,1,3.91,2.08,6.46,6.46,0,0,1,1.14,1.77,8.45,8.45,0,0,1,.42,1.29,9.58,9.58,0,0,1,.24,2.32v5.19a.21.21,0,0,1-.19.2h-7Zm3.11,13.53a.6.6,0,0,0-.07.4c0,.65,0,1.3,0,1.95a5,5,0,0,1-.36,1.77,3.2,3.2,0,0,1-2.27,1.84,5.33,5.33,0,0,1-1.45.16c-3.06,0-6.11,0-9.17,0a5.62,5.62,0,0,1-2-.31A3.1,3.1,0,0,1,106.45,36a4.5,4.5,0,0,1-.59-2.12c0-.26,0-.52,0-.78V13.6a7.52,7.52,0,0,1,.13-1.89,4.08,4.08,0,0,1,.52-1.36A3,3,0,0,1,108,9.17a4.33,4.33,0,0,1,1.6-.3h9.22a6.26,6.26,0,0,1,1.61.1,6,6,0,0,1,1,.31,3.15,3.15,0,0,1,1.77,2.39,6.76,6.76,0,0,1,.12,1.56c0,.48,0,.95,0,1.43a.7.7,0,0,0,.09.41,2.67,2.67,0,0,0,.89,0c0-.06,0-.09,0-.12a24.06,24.06,0,0,0-.09-3.06,6.31,6.31,0,0,0-.45-1.61,3.8,3.8,0,0,0-.76-1.1,4.8,4.8,0,0,0-3.35-1.28c-3.42,0-6.83,0-10.24,0a1.3,1.3,0,0,0-.34,0,7.61,7.61,0,0,0-1.91.56,4.08,4.08,0,0,0-1.45,1.25A4.29,4.29,0,0,0,105.1,11a6.82,6.82,0,0,0-.24,1.35c0,.25,0,.5,0,.75v20a8.28,8.28,0,0,0,.1,1.72,6.47,6.47,0,0,0,.38,1.25,4,4,0,0,0,2.43,2.15,5.1,5.1,0,0,0,1.69.3h9.28a9,9,0,0,0,1.87-.11,5.56,5.56,0,0,0,1.5-.52,4,4,0,0,0,2-2.92,7.07,7.07,0,0,0,.16-1.72c0-.48,0-1,0-1.43a.65.65,0,0,0,0-.36A3.77,3.77,0,0,0,123.37,31.44Z" transform="translate(-7.76 -4.94)"/><path class="cls-2" d="M133.86,5.18h23.06a.8.8,0,0,1,.43,0c.07.33.06,6.47,0,6.78H141v7.36c.74,0,1.48,0,2.21,0h11c.07.28.1,6.13,0,6.8-.72,0-1.46,0-2.19,0h-11a.53.53,0,0,0-.11.37v7.67a.68.68,0,0,0,0,.14c.13.11.28.06.42.06h15.87c0,.48,0,1,0,1.43,0,1.79,0,3.58,0,5.37H133.86V5.18Zm3.06,33.17c.4.07,17.1,0,17.37,0a1.49,1.49,0,0,0,0-.56c0-.52,0-.52-.54-.52H138.41c-.13,0-.27,0-.39-.06V23.37h13.15a3.63,3.63,0,0,0,0-1.14H138.06c-.08-.34-.08-12.79,0-13.07a1.08,1.08,0,0,1,.4,0H153.9c.14,0,.28,0,.4-.07a5.44,5.44,0,0,0,0-.81.23.23,0,0,0-.22-.25h-17a.24.24,0,0,0-.23.25,1.33,1.33,0,0,1,0,.2V38A.59.59,0,0,0,136.92,38.35Z" transform="translate(-7.76 -4.94)"/><path class="cls-1" d="M88.87,41.24,83.07,27.9H77.28V41.19c-.26.08-6.84.09-7.24,0v-36a.76.76,0,0,1,.36,0H88.51a7.35,7.35,0,0,1,1.69.17A6.88,6.88,0,0,1,93.47,7a7,7,0,0,1,1.38,1.91c.14.29.23.61.34.91a10.1,10.1,0,0,1,.37,3.23q0,3.76,0,7.53a8,8,0,0,1-.23,2.13,7.26,7.26,0,0,1-.65,1.65,6.53,6.53,0,0,1-.94,1.33,6.2,6.2,0,0,1-1.57,1.22,4.88,4.88,0,0,1-1.27.53c-.1,0-.13.12-.2.18l6,13.59ZM74.16,25.1l.44,0H85.21l0,.06c0,.13,0,.19.12.25l0,.11c0,.15,0,.22.15.28a.3.3,0,0,0,0,.13c.43,1,.86,2,1.28,2.94.24.55.5,1.1.73,1.66s.62,1.4.93,2.1c.22.5.4,1,.63,1.49.39.81.71,1.65,1.09,2.47.24.52.47,1,.68,1.57a.28.28,0,0,0,.27.21,3,3,0,0,0,.74,0c0-.24,0-.26,0-.4a1.51,1.51,0,0,1-.1-.17c-.39-1-.82-1.93-1.25-2.88-.29-.66-.58-1.31-.86-2s-.6-1.39-.89-2.08-.49-1.14-.74-1.7c-.31-.74-.63-1.47-1-2.2s-.53-1.22-.8-1.84a.55.55,0,0,1,.37-.07c.39,0,.78,0,1.16,0a8.32,8.32,0,0,0,1.4-.22c.27-.08.53-.19.78-.29a3.36,3.36,0,0,0,1.13-.74,4.33,4.33,0,0,0,1.22-2.39,9.06,9.06,0,0,0,.15-1.56c0-2,0-4.09,0-6.14,0-.66-.11-1.31-.13-2a.22.22,0,0,0,0-.11,11,11,0,0,0-.55-1.4,4.1,4.1,0,0,0-2.49-1.9,6.26,6.26,0,0,0-1.88-.23H73.59a.78.78,0,0,0-.37,0,.73.73,0,0,0-.06.46V38.12a.32.32,0,0,0,.09.23,3.46,3.46,0,0,0,.85,0,.74.74,0,0,0,.05-.41V29.84C74.15,28.26,74.16,26.68,74.16,25.1Z" transform="translate(-7.76 -4.94)"/><path class="cls-1" d="M41.15,41.21c-.38.07-7.24.06-7.52,0,.27-.65.43-1.34.68-2a6.82,6.82,0,0,0,.31-1c.09-.38.26-.74.35-1.12s.27-.8.38-1.21.31-.93.47-1.4.35-1.14.54-1.7.32-1,.5-1.52c.13-.34.22-.71.33-1.06s.24-.73.35-1.09c.18-.54.34-1.1.53-1.63s.3-1,.51-1.52c.12-.3.18-.62.29-.93s.25-.79.37-1.19c.17-.55.37-1.09.53-1.64.09-.32.21-.64.3-1s.29-.85.41-1.28.31-1,.47-1.44.34-1.1.53-1.63.3-1,.5-1.52c.13-.33.21-.68.32-1,.17-.54.35-1.07.53-1.6.11-.35.21-.71.33-1.06.18-.52.32-1.06.52-1.58.14-.35.2-.72.32-1.06.2-.54.33-1.11.55-1.64a8.79,8.79,0,0,0,.32-1c.09-.34.25-.67.31-1a.19.19,0,0,1,.19-.16h8.25a1.16,1.16,0,0,1,.3.71c.24.82.53,1.63.78,2.44.14.45.26.91.43,1.34.24.64.42,1.29.63,1.94s.42,1.31.64,2,.31,1.06.51,1.59c.13.34.23.7.33,1.06s.22.67.33,1c.17.53.34,1.07.52,1.6s.25.76.37,1.15.23.72.34,1.08l.33,1c.18.54.35,1.09.53,1.63L60,24.82c.12.36.21.73.34,1.09s.23.74.37,1.11.19.69.32,1c.19.53.3,1.09.54,1.6a5.54,5.54,0,0,1,.17.58c.22.71.45,1.41.68,2.11.11.36.2.72.33,1.07.19.53.31,1.08.53,1.6a8.64,8.64,0,0,1,.32,1c.11.36.21.73.33,1.08s.27.78.38,1.18.23.65.33,1c.17.6.43,1.18.56,1.8,0,0,.07.06,0,.12-.26.09-6.46.13-7.74.05-.12-.35-.21-.71-.33-1.07A12.33,12.33,0,0,0,56.85,39c-.07-.18-.09-.37-.15-.56-.22-.73-.4-1.47-.63-2.2-.15-.5-.27-1-.42-1.49s-.29-.94-.4-1.41a.21.21,0,0,0-.19-.18H43.64a.17.17,0,0,0-.17.14,4.58,4.58,0,0,1-.15.49c-.11.46-.27.91-.41,1.37s-.28,1.12-.47,1.66-.33,1.16-.53,1.73c-.12.37-.23.75-.32,1.13s-.24.79-.36,1.19A2.61,2.61,0,0,0,41.15,41.21ZM57.63,30.26c.87,2.71,1.6,5.42,2.48,8.11.32-.06.64.11.92-.16-.16-.16-.11-.36-.19-.54a5.47,5.47,0,0,1-.32-1c-.08-.4-.25-.76-.34-1.16s-.26-.83-.39-1.24-.19-.75-.33-1.11c-.2-.52-.34-1.07-.5-1.6s-.32-1.07-.48-1.6-.25-.85-.39-1.28-.32-1.08-.5-1.62-.32-1-.48-1.53-.25-.76-.34-1.15-.27-.88-.41-1.31S56,22,55.85,21.4c-.1-.36-.22-.7-.32-1.06s-.2-.76-.33-1.13c-.19-.56-.33-1.13-.52-1.69s-.31-1.08-.5-1.62c-.12-.36-.22-.72-.35-1.08-.18-.52-.29-1.08-.47-1.6s-.26-.86-.39-1.29-.31-1.06-.49-1.58c-.13-.37-.21-.75-.36-1.12a8.57,8.57,0,0,1-.28-1,.21.21,0,0,0-.17-.16,1.51,1.51,0,0,0-.3,0h-4a.25.25,0,0,0-.26.18c-.23.53-.33,1.11-.53,1.65s-.35,1.12-.52,1.68c-.11.36-.24.72-.34,1.09s-.21.76-.34,1.12c-.18.52-.32,1.05-.49,1.57s-.38,1.13-.53,1.7-.28.83-.39,1.26-.18.67-.3,1c-.2.52-.32,1.06-.51,1.58s-.19.77-.33,1.13c-.22.52-.35,1.05-.52,1.58s-.34,1-.48,1.6-.35,1-.49,1.52-.38,1.21-.56,1.81c-.1.36-.25.7-.33,1.06s-.25.74-.34,1.12-.24.74-.36,1.11-.18.75-.31,1.1c-.26.69-.46,1.39-.67,2.09-.17.53-.34,1.06-.49,1.6s-.29,1-.48,1.5a.23.23,0,0,0,0,.25h.65a.21.21,0,0,0,.24-.19c0-.18.1-.37.17-.55.22-.6.36-1.23.58-1.83.08-.22.13-.45.2-.68l.33-1c.11-.39.21-.78.34-1.16s.24-.77.37-1.15a16,16,0,0,1,.5-1.53Z" transform="translate(-7.76 -4.94)"/><path class="cls-2" d="M7.76,5.18H26.21a7.35,7.35,0,0,1,1.69.17A9.26,9.26,0,0,1,29,5.69a6.39,6.39,0,0,1,2.65,1.9,5.56,5.56,0,0,1,.72,1.09,10,10,0,0,1,.56,1.4,6.94,6.94,0,0,1,.26,2.17c0,3.27,0,6.54,0,9.82A5.41,5.41,0,0,1,33,23.34a6.71,6.71,0,0,1-1.18,2.54,6.36,6.36,0,0,1-2.14,1.82,8.08,8.08,0,0,1-1.83.63,11.06,11.06,0,0,1-2.5.2H15.23c-.26,0-.3.05-.31.3a2.44,2.44,0,0,0,0,.27c0,3.9,0,7.8,0,11.69a1.07,1.07,0,0,1,0,.4c-.06.07-.13,0-.2,0H7.77c0-.87,0-1.75,0-2.62Zm4.1,20.49a.83.83,0,0,1,.44-.05H24.85a7.26,7.26,0,0,0,2.31-.29,4.31,4.31,0,0,0,1.76-1.07A4.53,4.53,0,0,0,30.05,22a7.61,7.61,0,0,0,.12-1.35c0-2.5,0-5,0-7.5a6,6,0,0,0-.2-1.68,5.71,5.71,0,0,0-.54-1.33A4.09,4.09,0,0,0,27,8.29a6.69,6.69,0,0,0-2-.23H11.28c-.5,0-.5,0-.5.51V37.86a1.76,1.76,0,0,0,0,.23.26.26,0,0,0,.08.24,2.19,2.19,0,0,0,.68,0c.21,0,.27,0,.29-.25a2.43,2.43,0,0,0,0-.27V26.11A1.08,1.08,0,0,1,11.86,25.67Z" transform="translate(-7.76 -4.94)"/><path class="cls-2" d="M186,41.25H164.22a1.45,1.45,0,0,1-.46,0v-36H171V34.43h15a2.46,2.46,0,0,1,0,.28V41A1.94,1.94,0,0,1,186,41.25Zm-19.13-2.93a1.52,1.52,0,0,0,.51,0h15.07c.62,0,.59,0,.59-.57s0-.49-.5-.49H168.09a.29.29,0,0,1-.25-.13V8.3a.25.25,0,0,0-.09-.23,3.07,3.07,0,0,0-.9,0Z" transform="translate(-7.76 -4.94)"/><path class="cls-1" d="M74.19,9.15a.67.67,0,0,1,.37,0H87.45c.31,0,.61,0,.92,0a3.43,3.43,0,0,1,1.48.5A3.19,3.19,0,0,1,91,10.88a2.61,2.61,0,0,1,.32.95,13.55,13.55,0,0,1,.15,1.55c0,2.17,0,4.34,0,6.51a5.66,5.66,0,0,1-.28,1.87,3.07,3.07,0,0,1-1.71,1.87,5.15,5.15,0,0,1-2.19.38H74.56c-.4,0-.4,0-.41-.39v-.11q0-7,0-14A.78.78,0,0,1,74.19,9.15Zm3.1,11.91a1,1,0,0,0,.37,0c2.94,0,5.89,0,8.83,0,.21,0,.41,0,.61,0a1.21,1.21,0,0,0,.83-.43,1.8,1.8,0,0,0,.4-1.26c0-1.86,0-3.72,0-5.58a3,3,0,0,0-.15-.9.82.82,0,0,0-.21-.37A1.71,1.71,0,0,0,86.67,12H77.56c-.08,0-.18,0-.27,0Z" transform="translate(-7.76 -4.94)"/><path class="cls-1" d="M47.76,9.13h3.42c.13.41.27.8.37,1.2s.24.75.34,1.13.25.83.38,1.24.31,1,.46,1.47.36,1.23.55,1.85.36,1.06.5,1.59.31,1.08.48,1.61.3,1.11.52,1.64a6.48,6.48,0,0,1,.32,1.06c.1.38.23.75.33,1.13s.26.85.39,1.28.31,1,.47,1.51.35,1.18.54,1.77c.13.38.21.78.36,1.15a1.43,1.43,0,0,1,.06.34l0,0,0,0-.13,0H41.73l-.11,0a.5.5,0,0,1,0-.36c.25-.73.44-1.48.69-2.2.19-.54.31-1.09.52-1.61a9.93,9.93,0,0,0,.32-1.06c.1-.38.24-.75.34-1.13s.24-.72.35-1.08l.36-1.19c.13-.45.27-.88.41-1.32s.33-1,.48-1.53.32-1.05.49-1.57c.22-.7.4-1.4.67-2.09a8.07,8.07,0,0,0,.29-1c.1-.38.23-.75.34-1.12s.22-.73.34-1.09C47.42,10.28,47.58,9.72,47.76,9.13ZM53.18,26.3a12.91,12.91,0,0,0-.42-1.6c-.15-.56-.35-1.11-.49-1.68-.11-.41-.25-.81-.34-1.23s-.26-.75-.35-1.14c-.15-.65-.37-1.28-.54-1.92-.11-.39-.25-.77-.34-1.16s-.23-.82-.35-1.22-.22-.8-.34-1.19-.23-.8-.33-1.2a2.21,2.21,0,0,0-.2-.58c-.09,0-.15,0-.16.06s-.14.4-.19.61a10.47,10.47,0,0,1-.32,1.13c-.19.55-.33,1.11-.5,1.67s-.35,1.2-.53,1.8c-.25.85-.49,1.7-.77,2.54-.15.47-.25.95-.41,1.42s-.28,1-.43,1.48-.36,1.28-.58,1.9a.38.38,0,0,0,0,.31Z" transform="translate(-7.76 -4.94)"/><path class="cls-1" d="M11.85,24.57V9.18a.4.4,0,0,1,.31-.07H25.35a4.34,4.34,0,0,1,.72,0,3.3,3.3,0,0,1,3,3.24c0,.43,0,.86,0,1.29,0,2.07,0,4.13,0,6.2a14.25,14.25,0,0,1-.05,1.6,3.21,3.21,0,0,1-1.62,2.61,4.37,4.37,0,0,1-1.28.42,14.14,14.14,0,0,1-3,.11c-3.63,0-7.27,0-10.91,0A.83.83,0,0,1,11.85,24.57ZM15,12a.85.85,0,0,0,0,.35v8.86a1,1,0,0,0,0,.17c0,.21.05.25.26.26a1,1,0,0,0,.17,0h8.9a2.1,2.1,0,0,0,.61-.05,1.44,1.44,0,0,0,1-.76,2.14,2.14,0,0,0,.15-1c0-2,0-4,0-6a3.83,3.83,0,0,0,0-.68,1.26,1.26,0,0,0-.61-.91A2,2,0,0,0,24.27,12h-9A.63.63,0,0,0,15,12Z" transform="translate(-7.76 -4.94)"/></svg>